<?xml version="1.0" encoding="utf-8"?>
<!-- Generator: Adobe Illustrator 21.0.0, SVG Export Plug-In . SVG Version: 6.00 Build 0)  -->
<svg version="1.1" id="Layer_1" xmlns="http://www.w3.org/2000/svg" xmlns:xlink="http://www.w3.org/1999/xlink" x="0px" y="0px"
	 viewBox="0 0 116 116" style="enable-background:new 0 0 116 116;" xml:space="preserve">
<style type="text/css">
	.st0{fill:#9D9C9B;}
</style>
<g>
	<g>
		<path class="st0" d="M93.5,111.2H26.6c3.4-2.8,5.6-7.1,5.6-11.8v0v0l0-47.2c0-1-0.8-1.8-1.8-1.8h0c-1,0-1.8,0.8-1.8,1.8l0,37.4
			c-2.8-3.4-7.1-5.6-11.8-5.6c-4.7,0-9,2.2-11.8,5.6V16.1c0-0.1,0-0.2,0-0.2c0.4-6.2,5.6-11,11.8-11c6.2,0,11.3,4.8,11.8,10.9
			l0,28.9c0,1,0.8,1.8,1.8,1.8h0c1,0,1.8-0.8,1.8-1.8l0-25.3h12.8c1,0,1.8-0.8,1.8-1.8s-0.8-1.8-1.8-1.8H32.2v-0.1c0,0,0-0.1,0-0.1
			c-0.5-8-7.2-14.2-15.3-14.2C9,1.4,2.4,7.5,1.7,15.3c0,0.2-0.1,0.3-0.1,0.5v83.6c0,8.4,6.9,15.3,15.3,15.3c0.1,0,76.6,0,76.6,0
			c1,0,1.8-0.8,1.8-1.8S94.5,111.2,93.5,111.2z M5.1,99.4c0-6.5,5.3-11.8,11.8-11.8s11.8,5.3,11.8,11.8l0,0
			c0,6.5-5.3,11.8-11.8,11.8S5.1,105.9,5.1,99.4z"/>
		<path class="st0" d="M112.2,15.9H54.3c-1,0-1.8,0.8-1.8,1.8s0.8,1.8,1.8,1.8h56.2v91.8h-7.6c-1,0-1.8,0.8-1.8,1.8s0.8,1.8,1.8,1.8
			h9.3c1,0,1.8-0.8,1.8-1.8V17.7C113.9,16.7,113.2,15.9,112.2,15.9z"/>
		<path class="st0" d="M25.2,99.4c0-4.6-3.7-8.3-8.3-8.3c-4.6,0-8.3,3.7-8.3,8.3c0,4.6,3.7,8.3,8.3,8.3
			C21.5,107.7,25.2,104,25.2,99.4z M12.1,99.4c0-2.6,2.1-4.8,4.8-4.8c2.6,0,4.8,2.1,4.8,4.8c0,2.6-2.1,4.8-4.8,4.8
			C14.2,104.2,12.1,102.1,12.1,99.4z"/>
		<path class="st0" d="M51.9,93.5c-0.2,0-0.4,0-0.6,0.1l-11.2,4.2c-0.7,0.3-1.2,1-1.1,1.8c0.1,0.8,0.6,1.4,1.4,1.6l11.2,2.3
			c0.1,0,0.2,0,0.4,0h50c1,0,1.8-0.8,1.8-1.8v-6.5c0-1-0.8-1.8-1.8-1.8L51.9,93.5L51.9,93.5z M93.2,100H53.7v-3h39.5V100z
			 M50.2,97.7v1.9L47,98.9L50.2,97.7z M100.2,100h-3.5v-3h3.5V100z"/>
		<path class="st0" d="M72.5,26.7c-0.7-0.7-1.8-0.7-2.4,0L45.1,51c-0.3,0.3-0.5,0.8-0.5,1.3v34.1c0,1,0.8,1.8,1.8,1.8h50
			c1,0,1.8-0.8,1.8-1.8V52.2c0-0.5-0.2-0.9-0.5-1.3L72.5,26.7z M71.3,30.4L92,50.5H50.6L71.3,30.4z M76.8,84.6h-11V68h11V84.6z
			 M80.3,84.6V66.2c0-1-0.8-1.8-1.8-1.8H64.1c-1,0-1.8,0.8-1.8,1.8v18.3H48.1V54h46.5v30.6H80.3z"/>
		<path class="st0" d="M71.3,48.8c3.3,0,6-2.7,6-6c0-3.3-2.7-6-6-6c-3.3,0-6,2.7-6,6C65.4,46.2,68,48.8,71.3,48.8z M71.3,40.4
			c1.4,0,2.5,1.1,2.5,2.5c0,1.4-1.1,2.5-2.5,2.5c-1.4,0-2.5-1.1-2.5-2.5C68.9,41.5,70,40.4,71.3,40.4z"/>
	</g>
</g>
</svg>
