<?xml version="1.0" encoding="utf-8"?>
<!-- Generator: Adobe Illustrator 21.0.0, SVG Export Plug-In . SVG Version: 6.00 Build 0)  -->
<svg version="1.1" id="Layer_1" xmlns="http://www.w3.org/2000/svg" xmlns:xlink="http://www.w3.org/1999/xlink" x="0px" y="0px"
	 viewBox="0 0 116 116" style="enable-background:new 0 0 116 116;" xml:space="preserve">
<style type="text/css">
	.st0{fill:#9D9C9B;}
</style>
<g>
	<path class="st0" d="M100.9,13.9C85.5-1.5,60.4-1.5,45,13.9c-7.5,7.5-11.6,17.4-11.6,27.9c0,9.6,3.4,18.7,9.7,25.9l-4.7,4.7
		l-4.8-4.8c-0.5-0.5-1.2-0.8-2-0.8c-0.7,0-1.5,0.3-2,0.8L7.2,90.1c-2.3,2.3-3.6,5.4-3.6,8.8c0,3.3,1.3,6.4,3.6,8.8
		c2.3,2.3,5.4,3.6,8.8,3.6c3.3,0,6.4-1.3,8.8-3.6l22.5-22.5c0.5-0.5,0.8-1.2,0.8-2s-0.3-1.5-0.8-2l-4.8-4.8l4.7-4.7
		c7.4,6.4,16.6,9.6,25.9,9.6c10.1,0,20.2-3.8,27.9-11.5c7.5-7.5,11.6-17.4,11.6-27.9C112.4,31.3,108.3,21.4,100.9,13.9z M20.8,103.6
		c-1.3,1.3-3,2-4.8,2c-1.8,0-3.5-0.7-4.8-2c-1.3-1.3-2-3-2-4.8c0-1.8,0.7-3.5,2-4.8l12.5-12.5l9.6,9.6L20.8,103.6z M37.3,87.1
		l-9.6-9.6l4-4l9.6,9.6L37.3,87.1z M96.9,65.8C83.7,79,62.2,79,49,65.8c-6.4-6.4-9.9-14.9-9.9-24c0-9.1,3.5-17.6,9.9-24
		C55.6,11.3,64.3,8,73,8c8.7,0,17.4,3.3,24,9.9c6.4,6.4,9.9,14.9,9.9,24S103.3,59.4,96.9,65.8z"/>
	<path class="st0" d="M92.3,22.5c-10.7-10.7-28-10.7-38.7,0c-10.7,10.7-10.7,28,0,38.7c5.3,5.3,12.3,8,19.3,8c7,0,14-2.7,19.3-8v0
		C103,50.5,103,33.2,92.3,22.5z M88.3,57.2c-8.5,8.5-22.3,8.5-30.8,0c-8.5-8.5-8.5-22.3,0-30.8c4.2-4.2,9.8-6.4,15.4-6.4
		c5.6,0,11.1,2.1,15.4,6.4C96.8,34.9,96.8,48.7,88.3,57.2z"/>
	<path class="st0" d="M62.5,31.4c-1.1,1.1-1.1,2.9,0,4c1.1,1.1,2.9,1.1,4,0c3.6-3.6,9.4-3.6,12.9,0c0.5,0.5,1.3,0.8,2,0.8
		c0.7,0,1.4-0.3,2-0.8c1.1-1.1,1.1-2.9,0-4C77.6,25.7,68.3,25.7,62.5,31.4z"/>
</g>
</svg>
