<?xml version="1.0" encoding="utf-8"?>
<!-- Generator: Adobe Illustrator 21.0.0, SVG Export Plug-In . SVG Version: 6.00 Build 0)  -->
<svg version="1.1" id="Layer_1" xmlns="http://www.w3.org/2000/svg" xmlns:xlink="http://www.w3.org/1999/xlink" x="0px" y="0px"
	 viewBox="0 0 116 116" style="enable-background:new 0 0 116 116;" xml:space="preserve">
<style type="text/css">
	.st0{fill:#9D9C9B;}
</style>
<g transform="translate(1 1)">
	<path class="st0" d="M64.3,17.7c-1.1,0-1.8-0.7-1.8-1.8V8.6c0-1.1,0.7-1.8,1.8-1.8c1.1,0,1.8,0.7,1.8,1.8v7.3
		C66.1,17,65.3,17.7,64.3,17.7z"/>
	<path class="st0" d="M49.7,17.7c-1.1,0-1.8-0.7-1.8-1.8V8.6c0-1.1,0.7-1.8,1.8-1.8c1.1,0,1.8,0.7,1.8,1.8v7.3
		C51.6,17,50.8,17.7,49.7,17.7z"/>
	<path class="st0" d="M87.8,43.1H26.2c-1.1,0-1.8-0.7-1.8-1.8v-3.6c0-14.3,9.4-26.5,23.6-30.5V6.8c0-3.1,2.5-5.4,5.4-5.4h7.3
		c3.1,0,5.4,2.5,5.4,5.4v0.4c14.1,4,23.6,16.1,23.6,30.5v3.6C89.6,42.4,88.9,43.1,87.8,43.1z M28,39.5h58v-1.8
		c0-13.1-8.9-24.1-22.1-27.2c-0.9-0.2-1.5-0.9-1.5-1.8V6.8c0-1.1-0.9-1.8-1.8-1.8h-7.3c-1.1,0-1.8,0.9-1.8,1.8v1.8
		c0,0.9-0.5,1.6-1.5,1.8C36.9,13.5,28,24.6,28,37.7V39.5z"/>
	<path class="st0" d="M91.5,43.1H22.5c-1.1,0-1.8-0.7-1.8-1.8c0-1.1,0.7-1.8,1.8-1.8h68.9c1.1,0,1.8,0.7,1.8,1.8
		C93.3,42.4,92.6,43.1,91.5,43.1z"/>
	<path class="st0" d="M57,84.8c-16.7,0-29-18.1-29-34.5v-9.1c0-1.1,0.7-1.8,1.8-1.8h54.4c1.1,0,1.8,0.7,1.8,1.8v9.1
		C86,66.7,73.7,84.8,57,84.8z M31.6,43.1v7.3C31.6,67.9,45,81.2,57,81.2c12,0,25.4-13.2,25.4-30.8v-7.3H31.6z"/>
	<path class="st0" d="M64.3,101.1H49.7c-0.5,0-1.3-0.4-1.5-0.9c-0.2-0.5-0.4-1.1-0.2-1.8l7.3-16.3c0.4-0.7,0.9-1.1,1.6-1.1
		c0.7,0,1.5,0.4,1.6,1.1l7.3,16.3c0.2,0.5,0.2,1.3-0.2,1.8C65.3,100.8,65,101.1,64.3,101.1z M52.6,97.5h8.9l-4.5-10L52.6,97.5z"/>
	<path class="st0" d="M47.9,110.2c-0.5,0-1.1-0.2-1.5-0.7c-0.4-0.4-0.5-0.9-0.4-1.5l1.8-9.1c0.2-0.9,0.9-1.5,1.8-1.5h14.5
		c0.9,0,1.6,0.5,1.8,1.5l1.8,9.1c0.2,0.5,0,1.1-0.4,1.5c-0.4,0.5-0.9,0.7-1.5,0.7H47.9L47.9,110.2z M51.2,101.1l-1.1,5.4h13.8
		l-1.1-5.4H51.2z"/>
	<path class="st0" d="M49.7,101.1c-0.5,0-1.1-0.4-1.5-0.7l-14.5-20c-0.4-0.4-0.4-1.1-0.4-1.5l1.8-7.3c0.2-0.5,0.5-0.9,1.1-1.3
		c0.5-0.2,1.1-0.2,1.6,0l0.5,0.2c0.2,0.2,0.4,0.4,0.5,0.5c5.1,6.3,11.4,10,18,10c0.5,0,1.3,0.4,1.5,0.9c0.2,0.5,0.4,1.1,0.2,1.8
		l-7.3,16.3c-0.2,0.5-0.9,1.1-1.5,1.1C49.9,101.1,49.9,101.1,49.7,101.1z M37.2,79l12.2,16.7l4.9-11.1c-5.8-0.7-11.6-3.8-16.3-8.9
		L37.2,79z"/>
	<path class="st0" d="M64.3,101.1h-0.2c-0.7,0-1.3-0.5-1.5-1.1l-7.3-16.3c-0.2-0.5-0.2-1.3,0.2-1.8c0.4-0.5,0.9-0.7,1.5-0.7
		c6.7,0,13.1-3.4,18-10c0.2-0.2,0.4-0.4,0.5-0.5l0.5-0.2c0.5-0.2,1.1-0.4,1.6,0c0.5,0.2,0.9,0.7,1.1,1.3l1.8,7.3
		c0.2,0.5,0,1.1-0.4,1.5l-14.5,20C65.3,101,64.8,101.1,64.3,101.1z M59.7,84.6l4.9,11.1L76.8,79L76,75.7
		C71.3,80.8,65.7,83.9,59.7,84.6z"/>
	<path class="st0" d="M109.6,110.2H65.3c-0.9,0-1.6-0.7-1.8-1.6c0-0.5,0.2-0.9,0.4-1.3l-1.5-7.6c-0.2-0.5,0-1.1,0.4-1.5l11.8-16.3
		c0.4-0.5,0.9-0.7,1.5-0.7H77h0.2c8,0.9,16.9,4.2,28.8,10.5l0,0c3.3,1.8,5.4,5.3,5.4,8.9v7.8C111.4,109.5,110.7,110.2,109.6,110.2z
		 M67.5,106.6h40.3v-6c0-2.4-1.3-4.5-3.4-5.8c-11.4-6-20-9.1-27.4-10.2L66.1,99.5L67.5,106.6z"/>
	<path class="st0" d="M47.9,110.2H4.4c-1.1,0-1.8-0.7-1.8-1.8v-7.8c0-3.8,2-7.3,5.4-8.9c12-6.3,20.9-9.6,28.8-10.5H37H38
		c0.5,0,1.1,0.4,1.5,0.7l11.8,16.3c0.4,0.4,0.4,0.9,0.4,1.5l-1.8,9.1C49.6,109.7,48.8,110.2,47.9,110.2z M6.2,106.6h40.3l1.5-6.9
		L37,84.8c-7.4,0.9-15.8,4-27.4,10.2c-2.2,1.1-3.4,3.3-3.4,5.6V106.6z"/>
	<path class="st0" d="M48.7,110.2h-0.7c-1.1,0-1.8-0.7-1.8-1.8c0-1.1,0.7-1.8,1.8-1.8h0.7c1.1,0,1.8,0.7,1.8,1.8
		C50.5,109.5,49.6,110.2,48.7,110.2z"/>
	<path class="st0" d="M44.3,26.8c-0.2,0-0.2,0-0.4,0l-13.8-2.7c-0.5-0.2-1.1-0.5-1.3-1.1c-0.2-0.5-0.2-1.1,0.2-1.6
		C32,16.8,36,13,40.9,10.3c0.5-0.4,1.1-0.4,1.6,0c0.5,0.2,0.9,0.7,1.1,1.3l2.7,13.2c0.2,0.5,0,1.3-0.5,1.6
		C45.2,26.6,44.8,26.8,44.3,26.8z M33.6,21l8.3,1.6l-1.6-8C37.8,16.4,35.4,18.6,33.6,21z"/>
	<path class="st0" d="M69.7,26.8c-0.5,0-0.9-0.2-1.3-0.5c-0.4-0.4-0.5-1.1-0.5-1.6l2.7-13.2c0.2-0.5,0.5-0.9,0.9-1.3
		c0.5-0.2,1.1-0.2,1.6,0c4.9,2.7,8.9,6.5,11.8,11.1c0.4,0.5,0.4,1.1,0.2,1.6c-0.2,0.5-0.7,0.9-1.3,1.1l-13.8,2.9
		C69.9,26.8,69.9,26.8,69.7,26.8z M73.7,14.6l-1.6,8l8.3-1.6C78.6,18.6,76.2,16.4,73.7,14.6z"/>
</g>
</svg>
