<?xml version="1.0" encoding="utf-8"?>
<!-- Generator: Adobe Illustrator 21.0.0, SVG Export Plug-In . SVG Version: 6.00 Build 0)  -->
<svg version="1.1" id="Layer_1" xmlns="http://www.w3.org/2000/svg" xmlns:xlink="http://www.w3.org/1999/xlink" x="0px" y="0px"
	 viewBox="0 0 300 46" style="enable-background:new 0 0 300 46;" xml:space="preserve">
<style type="text/css">
	.st0{fill:#F79032;}
	.st1{fill:#FFFFFF;}
</style>
<g>
	<path class="st0" d="M35.6,0.8v39.7h-7.4V18.7L1.1,45.8V35.3L35.6,0.8z"/>
	<path class="st0" d="M53.7,15.9L69.3,0.3H58.8L41.1,18.1l0,10.5c0,0,0.4-0.4,1.1-1.1c2-2,6.3-6.3,6.3-6.3l6.3,6.3l7.4,7.4l5.7,5.7
		l10.5,0L53.7,15.9z"/>
</g>
<g>
	<path class="st1" d="M113.5,9.2v22.3h-4.2V19.2L93.7,34.4v-5.9L113.5,9.2z"/>
	<path class="st1" d="M124.8,16.3v15.2h-4.2V16.3h-5.7v-4.1h15.6v4.1H124.8z"/>
	<path class="st1" d="M136.1,12.2v19.4h-4.2V12.2H136.1z"/>
	<path class="st1" d="M143.4,12.2v19.4h-4.2V12.2H143.4z"/>
	<path class="st1" d="M177.3,15c1.9,1.9,2.9,4.2,2.9,6.8s-1,5-2.9,6.8c-1.9,1.9-4.3,2.8-7,2.8c-2.7,0-5.1-0.9-7-2.8
		c-1.9-1.9-2.9-4.2-2.9-6.8s1-5,2.9-6.8c1.9-1.9,4.3-2.8,7-2.8C173,12.2,175.3,13.1,177.3,15z M170.3,16.3c-1.6,0-2.9,0.5-4,1.6
		c-1.1,1.1-1.7,2.4-1.7,3.9c0,1.5,0.6,2.8,1.7,3.9c1.1,1.1,2.4,1.6,4,1.6c1.6,0,2.9-0.5,4-1.6c1.1-1.1,1.7-2.4,1.7-3.9
		c0-1.5-0.6-2.8-1.7-3.9C173.2,16.8,171.8,16.3,170.3,16.3z"/>
	<path class="st1" d="M192.5,23.9c-0.1-0.7-0.2-1.4-0.2-2.1c0-2.7,1-5,2.9-6.8c1.9-1.9,4.3-2.8,7-2.8c2.7,0,5.1,0.9,7,2.8
		c1,1,1.8,2.1,2.3,3.4h-4.9c-0.1-0.2-0.3-0.3-0.4-0.5c-1.1-1.1-2.4-1.6-4-1.6c-1.6,0-2.9,0.5-4,1.6c-0.6,0.6-1,1.2-1.3,1.8h15
		c0.1,0.7,0.2,1.4,0.2,2.1c0,2.7-1,5-2.9,6.8c-1.9,1.9-4.3,2.8-7,2.8c-2.7,0-5.1-0.9-7-2.8c-1-1-1.8-2.1-2.3-3.4h4.9
		c0.1,0.2,0.3,0.3,0.4,0.5c1.1,1.1,2.4,1.6,4,1.6c1.6,0,2.9-0.5,4-1.6c0.6-0.6,1-1.2,1.3-1.8H192.5z"/>
	<path class="st1" d="M223.4,16.3v15.2h-4.2V16.3h-5.7v-4.1h15.6v4.1H223.4z"/>
	<path class="st1" d="M230.5,21.8v-9.7h4.2v9.7c0,1.5,0.6,2.8,1.7,3.9c1.1,1.1,2.4,1.6,4,1.6c1.6,0,2.9-0.5,4-1.6
		c1.1-1.1,1.7-2.4,1.7-3.9v-9.7h4.2v9.7c0,2.7-1,5-2.9,6.8c-1.9,1.9-4.3,2.8-7,2.8c-2.7,0-5.1-0.9-7-2.8
		C231.5,26.8,230.5,24.5,230.5,21.8z"/>
	<path class="st1" d="M261.7,12.2c2.7,0,5.1,0.9,7,2.8c1.9,1.9,2.9,4.2,2.9,6.8s-1,5-2.9,6.8c-1.9,1.9-4.3,2.8-7,2.8h-9.9V12.2
		H261.7z M256,27.4h5.7c1.6,0,2.9-0.5,4-1.6c1.1-1.1,1.7-2.4,1.7-3.9c0-1.5-0.6-2.8-1.7-3.9c-1.1-1.1-2.4-1.6-4-1.6H256V27.4z"/>
	<path class="st1" d="M277.2,12.2v19.4H273V12.2H277.2z"/>
	<path class="st1" d="M295.6,15c1.9,1.9,2.9,4.2,2.9,6.8s-1,5-2.9,6.8c-1.9,1.9-4.3,2.8-7,2.8c-2.7,0-5.1-0.9-7-2.8
		c-1.9-1.9-2.9-4.2-2.9-6.8s1-5,2.9-6.8c1.9-1.9,4.3-2.8,7-2.8C291.3,12.2,293.6,13.1,295.6,15z M288.6,16.3c-1.6,0-2.9,0.5-4,1.6
		c-1.1,1.1-1.7,2.4-1.7,3.9c0,1.5,0.6,2.8,1.7,3.9c1.1,1.1,2.4,1.6,4,1.6c1.6,0,2.9-0.5,4-1.6c1.1-1.1,1.7-2.4,1.7-3.9
		c0-1.5-0.6-2.8-1.7-3.9C291.5,16.8,290.1,16.3,288.6,16.3z"/>
	<path class="st1" d="M262.6,17.5"/>
	<path class="st1" d="M151.1,19.6l7.4-7.4h-5l-8.4,8.4l0,5c-0.1,0.1,3.5-3.5,3.5-3.5l9.2,9.2l4.9,0L151.1,19.6z"/>
</g>
</svg>
